<svg xmlns="http://www.w3.org/2000/svg" viewBox="0 0 367 118"><defs><style>.cls-1{fill:#fff;}.cls-2{fill:none;}</style></defs><title>자산 17</title><g id="레이어_2" data-name="레이어 2"><g id="레이어_1-2" data-name="레이어 1"><rect x="20.36" y="22.16" width="67.81" height="67.81"/><path d="M140.48,72V45.72H142a8.84,8.84,0,0,1,4.54,1,7.27,7.27,0,0,1,2.77,3.74,22.12,22.12,0,0,1,1.1,7.86,27.3,27.3,0,0,1-1,8.44,8,8,0,0,1-2.67,4.09A8.22,8.22,0,0,1,142,72h-1.5m.68-33.15h-9.47v40h10.52a26.46,26.46,0,0,0,7.18-.82,11.38,11.38,0,0,0,5.16-3.22,17.43,17.43,0,0,0,3.69-6.58,29.92,29.92,0,0,0,1.41-9.57q0-7.59-2.31-12a12.64,12.64,0,0,0-6.17-6.11,25.7,25.7,0,0,0-10-1.66"/><path d="M186.36,74.06c-1.83,0-2.75-1.24-2.75-3.74a4.7,4.7,0,0,1,1.54-4,10.66,10.66,0,0,1,5.14-1.6V66.2q0,4.5-1.22,6.18a3.39,3.39,0,0,1-2.71,1.68M188,48.65a13.28,13.28,0,0,0-8.16,2.41,9.57,9.57,0,0,0-3.79,6.85l7.82.77c.22-3,1.37-4.55,3.47-4.55a2.36,2.36,0,0,1,2.32,1.15,9.71,9.71,0,0,1,.6,4.1v1.11c-5.77.36-9.75,1.43-11.93,3.24a9.38,9.38,0,0,0-3.28,7.67,8,8,0,0,0,2.16,6,7.81,7.81,0,0,0,5.62,2.07q5.38,0,8.1-5.16a16.12,16.12,0,0,0,.42,4.54h7.67q-.5-1.05-.49-6.57V60.49A23.6,23.6,0,0,0,197.9,54a7,7,0,0,0-3.18-3.71,12.4,12.4,0,0,0-6.69-1.6"/><path d="M227.42,73.54a2.88,2.88,0,0,1-2.79-1.28c-.45-.85-.68-2.68-.68-5.51V61.16q0-4.42,1.08-5.64a3.37,3.37,0,0,1,2.62-1.21,2.73,2.73,0,0,1,2.66,1.93c.52,1.29.79,3.75.79,7.38,0,4.35-.31,7.09-.91,8.22a3,3,0,0,1-2.77,1.7m2.76-24.65q-4.31,0-6.73,4.8V49.27h-7.62V88.89H224V76.67a7.08,7.08,0,0,0,5.64,2.61,8.38,8.38,0,0,0,7.4-4q2.64-3.94,2.64-11.75,0-7.44-2.69-11.06a8.12,8.12,0,0,0-6.76-3.62"/><path d="M264.05,38.86h-8.26v40h8.26V60.09c0-2.15.34-3.53,1-4.14a3.82,3.82,0,0,1,2.67-.91A2.35,2.35,0,0,1,270,56a9,9,0,0,1,.54,3.85v19h8.27v-19a31.65,31.65,0,0,0-.47-6.26,6.14,6.14,0,0,0-2.22-3.56,7.36,7.36,0,0,0-4.76-1.41q-5,0-7.27,3.75V38.86"/><path d="M310.87,48.68q-5.37,0-7.42,4.63v-4h-7.82v29.6h8.26V61.52a12.43,12.43,0,0,1,.71-5.09c.47-.9,1.44-1.36,2.93-1.36a2.9,2.9,0,0,1,2.05.71c.51.46.76,1.69.76,3.69v19.4h8.27V59.47a26.47,26.47,0,0,0-.53-6.16A5.71,5.71,0,0,0,315.66,50a8.25,8.25,0,0,0-4.79-1.31"/><path d="M342.79,60.67q0-6.54,3.83-6.54t3.85,5.72c0,.19,0,.47,0,.82h-7.65m3.65-12a11,11,0,0,0-8.91,4.06q-3.31,4.07-3.32,11.77,0,6.83,3.13,10.9t9.16,4.08q9.78,0,11.74-10.32l-7.36-.47q-.47,5-4.23,5a3.46,3.46,0,0,1-2.83-1.34q-1.08-1.35-1.08-5.32V65.45h15.5q0-9.59-3.38-13.18a11.1,11.1,0,0,0-8.42-3.59"/><polyline points="362.04 95.98 127.54 95.98 127.54 97.98 362.04 97.98 362.04 95.98"/><path d="M85.78,22.18V88H23.46V22.18ZM52.19,39.77a14.43,14.43,0,0,0,3.3,2.1A47.28,47.28,0,0,0,64.26,44c4.49.49,9,.61,13.57.65,1.76,0,3.61,0,4.9-2,1.11-1.64,1.29-2-.39-3-3.34-2-6.72-3.91-10-6a11.4,11.4,0,0,0-8.75-1.52c-3,.58-6,1.33-9,2,.65-1.09,1.23-2.29,2-3.35.66-.87,1.22-1.76.24-2.55s-1.74.26-2.43.92a1.4,1.4,0,0,0-.28.36c-1.33,2.62-2.78,5.18-3.94,7.86-1,2.4-1.75,4.93-2.59,7.35a20.61,20.61,0,0,0-1.18,41.05C59.61,87.08,68.26,77.51,69.28,68,70.61,55.8,62.54,46.22,50.5,44.7Z"/><path class="cls-1" d="M85.78,22.18H23.46V88H85.78a5.74,5.74,0,0,1-1.24.3H23.05V21.87q30.73,0,61.49,0A5.7,5.7,0,0,1,85.78,22.18Z"/><path class="cls-1" d="M52.19,39.77,50.5,44.7c12,1.52,20.11,11.1,18.78,23.34-1,9.47-9.67,19-22.85,17.8a20.61,20.61,0,0,1,1.18-41.05c.84-2.42,1.56-4.95,2.59-7.35,1.16-2.68,2.61-5.24,3.94-7.86a1.4,1.4,0,0,1,.28-.36c.69-.66,1.35-1.78,2.43-.92s.42,1.68-.24,2.55c-.78,1.06-1.36,2.26-2,3.35,3-.68,6-1.43,9-2a11.4,11.4,0,0,1,8.75,1.52c3.26,2.11,6.64,4,10,6,1.68,1,1.5,1.32.39,3-1.29,1.91-3.14,2-4.9,2-4.53,0-9.08-.16-13.57-.65a47.28,47.28,0,0,1-8.77-2.12A14.43,14.43,0,0,1,52.19,39.77Zm-3.37,7.57c-10-.42-17.55,8.25-18.06,16.65A18.15,18.15,0,1,0,67,65.31,17.76,17.76,0,0,0,48.82,47.34Zm5.56-9.64c1.54,2.25,3.94,2.39,6.07,2.91a42,42,0,0,0,7.14,1.14c3.37.26,6.77.3,10.16.37a10.34,10.34,0,0,0,2.07-.43c-1.6-1-3-1.89-4.47-2.76-2.35-1.4-4.58-3.2-7.13-4-1.84-.61-4.14-.1-6.17.23A21.81,21.81,0,0,0,54.38,37.7Z"/><path d="M48.82,47.34a18.11,18.11,0,1,1,0,36.21A18.06,18.06,0,0,1,30.76,64C31.27,55.59,38.86,46.92,48.82,47.34Zm1.89,7.54c-.62.78-1.25,1.24-1.18,1.55a2,2,0,0,0,1.13,1.1c.16.07.9-.54.89-.81C51.53,56.22,51.14,55.75,50.71,54.88Zm9.21,5c-.8-.51-1.27-1-1.69-1s-.68.71-1,1.1a4.65,4.65,0,0,0,1.33.93C58.8,61,59.21,60.47,59.92,59.92Zm-7.05,3.65c-.62.79-1.24,1.26-1.17,1.57a2,2,0,0,0,1.14,1.08c.16.07.9-.54.89-.82A6.31,6.31,0,0,0,52.87,63.57Zm11.41,4.9c-.76-.59-1.18-1.17-1.61-1.18s-.74.64-1.11,1c.41.37.76.87,1.24,1C63.05,69.42,63.51,68.94,64.28,68.47ZM59,73.94c-.79-.53-1.25-1.08-1.67-1s-.69.68-1,1.07a4.69,4.69,0,0,0,1.31,1C57.84,75,58.27,74.47,59,73.94Z"/><path d="M54.38,37.7a21.81,21.81,0,0,1,7.67-2.57c2-.33,4.33-.84,6.17-.23,2.55.83,4.78,2.63,7.13,4,1.45.87,2.87,1.77,4.47,2.76a10.34,10.34,0,0,1-2.07.43c-3.39-.07-6.79-.11-10.16-.37a42,42,0,0,1-7.14-1.14C58.32,40.09,55.92,40,54.38,37.7Zm3.9-.51v.73c.53,0,1.06.1,1.6.1,4.4-.05,8.82-.24,12.95,1.78.37.18.94-.08,1.42-.14C69.14,36.49,63.69,37,58.28,37.19Z"/><path class="cls-1" d="M50.71,54.88c.43.87.82,1.34.84,1.84,0,.27-.73.88-.89.81a2,2,0,0,1-1.13-1.1C49.46,56.12,50.09,55.66,50.71,54.88Z"/><path class="cls-1" d="M59.92,59.92c-.71.55-1.12,1.09-1.37,1A4.65,4.65,0,0,1,57.22,60c.33-.39.64-1.07,1-1.1S59.12,59.41,59.92,59.92Z"/><path class="cls-1" d="M52.87,63.57a6.31,6.31,0,0,1,.86,1.83c0,.28-.73.89-.89.82a2,2,0,0,1-1.14-1.08C51.63,64.83,52.25,64.36,52.87,63.57Z"/><path class="cls-1" d="M64.28,68.47c-.77.47-1.23,1-1.48.86-.48-.17-.83-.67-1.24-1,.37-.36.75-1,1.11-1S63.52,67.88,64.28,68.47Z"/><path class="cls-1" d="M59,73.94c-.72.53-1.15,1-1.4,1a4.69,4.69,0,0,1-1.31-1c.35-.39.68-1,1-1.07S58.2,73.41,59,73.94Z"/><path class="cls-1" d="M58.28,37.19c5.41-.15,10.86-.7,16,2.47-.48.06-1,.32-1.42.14C68.7,37.78,64.28,38,59.88,38c-.54,0-1.07-.06-1.6-.1Z"/><path class="cls-2" d="M149.39,78.05a11.38,11.38,0,0,0,5.16-3.22,17.43,17.43,0,0,0,3.69-6.58,29.92,29.92,0,0,0,1.41-9.57q0-7.59-2.31-12a12.64,12.64,0,0,0-6.17-6.11,25.7,25.7,0,0,0-10-1.66h-9.47v40h10.52A26.41,26.41,0,0,0,149.39,78.05Zm-8.91-6V45.72H142a8.84,8.84,0,0,1,4.54,1,7.27,7.27,0,0,1,2.77,3.74,22.12,22.12,0,0,1,1.1,7.86,27.3,27.3,0,0,1-1,8.44,8,8,0,0,1-2.67,4.09A8.22,8.22,0,0,1,142,72Z"/><path class="cls-2" d="M178.36,63.73a9.38,9.38,0,0,0-3.28,7.67,8,8,0,0,0,2.16,6,7.81,7.81,0,0,0,5.62,2.07q5.38,0,8.1-5.16a16.12,16.12,0,0,0,.42,4.54h7.67q-.5-1.05-.49-6.57V60.49A23.6,23.6,0,0,0,197.9,54a7,7,0,0,0-3.18-3.71,12.4,12.4,0,0,0-6.69-1.6,13.28,13.28,0,0,0-8.16,2.41,9.57,9.57,0,0,0-3.79,6.85l7.82.77c.22-3,1.37-4.55,3.47-4.55a2.36,2.36,0,0,1,2.32,1.15,9.71,9.71,0,0,1,.6,4.1v1.11C184.52,60.85,180.54,61.92,178.36,63.73Zm11.93,2.47q0,4.5-1.22,6.18a3.39,3.39,0,0,1-2.71,1.68c-1.83,0-2.75-1.24-2.75-3.74a4.7,4.7,0,0,1,1.54-4,10.66,10.66,0,0,1,5.14-1.6Z"/><path class="cls-2" d="M303.89,61.52a12.43,12.43,0,0,1,.71-5.09c.47-.9,1.44-1.36,2.93-1.36a2.9,2.9,0,0,1,2.05.71c.51.46.76,1.69.76,3.69v19.4h8.27V59.47a26.47,26.47,0,0,0-.53-6.16A5.71,5.71,0,0,0,315.66,50a8.25,8.25,0,0,0-4.79-1.31q-5.37,0-7.42,4.63v-4h-7.82v29.6h8.26Z"/><path class="cls-2" d="M264.05,60.09c0-2.15.34-3.53,1-4.14a3.82,3.82,0,0,1,2.67-.91A2.35,2.35,0,0,1,270,56a9,9,0,0,1,.54,3.85v19h8.27v-19a31.65,31.65,0,0,0-.47-6.26,6.17,6.17,0,0,0-2.21-3.56,7.41,7.41,0,0,0-4.77-1.41q-5,0-7.27,3.75V38.86h-8.26v40h8.26Z"/><path class="cls-2" d="M224,76.67a7.08,7.08,0,0,0,5.64,2.61,8.38,8.38,0,0,0,7.4-4q2.64-3.94,2.64-11.75,0-7.44-2.69-11.06a8.12,8.12,0,0,0-6.76-3.62q-4.31,0-6.73,4.8V49.27h-7.62V88.89H224Zm0-15.51q0-4.42,1.08-5.64a3.37,3.37,0,0,1,2.62-1.21,2.73,2.73,0,0,1,2.66,1.93c.52,1.29.79,3.75.79,7.38,0,4.35-.31,7.09-.91,8.22a3,3,0,0,1-2.77,1.7,2.88,2.88,0,0,1-2.79-1.28c-.45-.85-.68-2.68-.68-5.51Z"/><path class="cls-2" d="M346.5,79.49q9.78,0,11.74-10.32l-7.36-.47q-.47,5-4.23,5a3.46,3.46,0,0,1-2.83-1.34q-1.08-1.35-1.08-5.32V65.45h15.5q0-9.59-3.38-13.18a11.1,11.1,0,0,0-8.42-3.59,11,11,0,0,0-8.91,4.06q-3.31,4.07-3.32,11.77,0,6.83,3.13,10.9T346.5,79.49Zm.12-25.36q3.86,0,3.85,5.72c0,.19,0,.47,0,.82h-7.65Q342.82,54.13,346.62,54.13Z"/><polygon class="cls-2" points="23.32 22.16 23.32 45.85 23.32 46.37 23.32 56.12 23.32 57.52 23.32 67.94 23.32 87.44 34.58 87.44 85.12 87.44 85.12 87.44 85.12 51.23 85.12 22.16 37.29 22.16 23.32 22.16"/><rect class="cls-2" x="127.54" y="95.98" width="234.5" height="2"/><path class="cls-1" d="M183.61,70.32c0,2.5.92,3.74,2.75,3.74a3.39,3.39,0,0,0,2.71-1.68q1.22-1.68,1.22-6.18V64.74a10.66,10.66,0,0,0-5.14,1.6A4.7,4.7,0,0,0,183.61,70.32Z"/><path class="cls-1" d="M149.39,66.75a27.3,27.3,0,0,0,1-8.44,22.12,22.12,0,0,0-1.1-7.86,7.27,7.27,0,0,0-2.77-3.74,8.84,8.84,0,0,0-4.54-1h-1.5V72H142a8.22,8.22,0,0,0,4.74-1.17A8,8,0,0,0,149.39,66.75Z"/><path class="cls-1" d="M0,0V118H367V0ZM337.53,52.74a11,11,0,0,1,8.91-4.06,11.1,11.1,0,0,1,8.42,3.59q3.38,3.6,3.38,13.18h-15.5v1.63q0,4,1.08,5.32a3.46,3.46,0,0,0,2.83,1.34q3.77,0,4.23-5l7.36.47q-2,10.32-11.74,10.32-6,0-9.16-4.08t-3.13-10.9Q334.21,56.8,337.53,52.74Zm-41.9-3.47h7.82v4q2.06-4.62,7.42-4.63A8.25,8.25,0,0,1,315.66,50a5.71,5.71,0,0,1,2.42,3.32,26.47,26.47,0,0,1,.53,6.16v19.4h-8.27V59.47c0-2-.25-3.23-.76-3.69a2.9,2.9,0,0,0-2.05-.71c-1.49,0-2.46.46-2.93,1.36a12.43,12.43,0,0,0-.71,5.09V78.87h-8.26ZM255.79,38.86h8.26V52.4q2.24-3.75,7.27-3.75a7.41,7.41,0,0,1,4.77,1.41,6.17,6.17,0,0,1,2.21,3.56,31.65,31.65,0,0,1,.47,6.26v19H270.5v-19A9,9,0,0,0,270,56a2.35,2.35,0,0,0-2.24-1,3.82,3.82,0,0,0-2.67.91c-.66.61-1,2-1,4.14V78.87h-8.26Zm-40,10.41h7.62v4.42q2.43-4.8,6.73-4.8a8.12,8.12,0,0,1,6.76,3.62q2.69,3.62,2.69,11.06,0,7.8-2.64,11.75a8.38,8.38,0,0,1-7.4,4A7.08,7.08,0,0,1,224,76.67V88.89h-8.12Zm-26.14,6a2.36,2.36,0,0,0-2.32-1.15c-2.1,0-3.25,1.52-3.47,4.55l-7.82-.77a9.57,9.57,0,0,1,3.79-6.85A13.28,13.28,0,0,1,188,48.65a12.4,12.4,0,0,1,6.69,1.6A7,7,0,0,1,197.9,54a23.6,23.6,0,0,1,.66,6.53V72.3q0,5.52.49,6.57h-7.67a16.12,16.12,0,0,1-.42-4.54q-2.72,5.16-8.1,5.16a7.81,7.81,0,0,1-5.62-2.07,8,8,0,0,1-2.16-6,9.38,9.38,0,0,1,3.28-7.67c2.18-1.81,6.16-2.88,11.93-3.24V59.38A9.71,9.71,0,0,0,189.69,55.28Zm-58-16.42h9.47a25.7,25.7,0,0,1,10,1.66,12.64,12.64,0,0,1,6.17,6.11q2.31,4.45,2.31,12a29.92,29.92,0,0,1-1.41,9.57,17.43,17.43,0,0,1-3.69,6.58,11.38,11.38,0,0,1-5.16,3.22,26.41,26.41,0,0,1-7.18.82H131.69ZM99.16,77.6a10.29,10.29,0,0,1-4,8.19,10.86,10.86,0,0,1-1.4,1L58,107.38a10.25,10.25,0,0,1-5.15,1.39h-.37a10.25,10.25,0,0,1-5.15-1.39L11.61,86.76a10.3,10.3,0,0,1-4.82-6.31c-.08-.32-.15-.64-.2-1a10.38,10.38,0,0,1-.19-1.86V36.3a10.59,10.59,0,0,1,5.21-9.09L47.33,6.59a10.24,10.24,0,0,1,5.15-1.38H53a10.24,10.24,0,0,1,5.15,1.38L93.91,27.21a10.7,10.7,0,0,1,5.25,9.11ZM362,98H127.54V96H362Z"/><path class="cls-1" d="M350.47,59.85q0-5.72-3.85-5.72t-3.83,6.54h7.65C350.46,60.32,350.47,60,350.47,59.85Z"/><path class="cls-1" d="M227.42,73.54a3,3,0,0,0,2.77-1.7c.6-1.13.91-3.87.91-8.22,0-3.63-.27-6.09-.79-7.38a2.73,2.73,0,0,0-2.66-1.93A3.37,3.37,0,0,0,225,55.52Q224,56.74,224,61.16v5.59c0,2.83.23,4.66.68,5.51A2.88,2.88,0,0,0,227.42,73.54Z"/><polygon class="cls-2" points="23.32 22.16 23.32 45.85 23.32 46.37 23.32 56.12 23.32 57.52 23.32 67.94 23.32 87.44 34.58 87.44 85.12 87.44 85.12 87.44 85.12 51.23 85.12 22.16 37.29 22.16 23.32 22.16"/><polygon class="cls-2" points="23.32 22.16 23.32 45.85 23.32 46.37 23.32 56.12 23.32 57.52 23.32 67.94 23.32 87.44 34.58 87.44 85.12 87.44 85.12 87.44 85.12 51.23 85.12 22.16 37.29 22.16 23.32 22.16"/><polygon class="cls-2" points="84.34 26.26 25.18 26.26 25.18 87.44 33.58 87.44 84.12 87.44 85.12 22.16 84.34 22.16 84.34 26.26"/><path d="M97.83,31.25a10.2,10.2,0,0,0-3.92-4L58.19,6.59A10.24,10.24,0,0,0,53,5.21h-.56a10.24,10.24,0,0,0-5.15,1.38l-27,15.57-8.75,5.05A10.59,10.59,0,0,0,6.4,36.3V77.62a10.38,10.38,0,0,0,.19,1.86c0,.33.12.65.2,1a10.3,10.3,0,0,0,4.82,6.31l35.72,20.62a10.25,10.25,0,0,0,5.15,1.39h.37A10.25,10.25,0,0,0,58,107.38L93.72,86.76a10.86,10.86,0,0,0,1.4-1,10.29,10.29,0,0,0,4-8.19V36.32A10.25,10.25,0,0,0,97.83,31.25ZM84.12,87.44H25.19V26.26H84.34v-4.1h.78Z"/></g></g></svg>